<svg width="312" height="48" viewBox="0 0 312 48" fill="none" xmlns="http://www.w3.org/2000/svg">
<g clip-path="url(#clip0_275_236)">
<path d="M0 0.5V47.5L2.58491 45.0065L5.24808 47.5L7.90733 44.9419L10.5679 47.5L13.1867 44.9432L15.8121 47.5L18.4648 44.9406L21.128 47.5L23.7507 44.9406L26.3734 47.5L29.0353 44.9432L31.6958 47.5L34.3134 44.9419L37 47.5V0.5L34.3564 3.05941L31.615 0.5L29.0353 3.05811L26.5273 0.5L23.7507 3.05811L21.2101 0.5L18.4687 3.05811L15.8864 0.5L13.1854 3.05941L10.5653 0.5L7.90211 3.05941L5.16852 0.5L2.5823 3.05941L0 0.5Z" fill="#00A8E8"/>
<path d="M18.4386 16.192C21.3781 16.192 23.761 13.8302 23.761 10.9168C23.761 8.0034 21.3781 5.6416 18.4386 5.6416C15.4991 5.6416 13.1162 8.0034 13.1162 10.9168C13.1162 13.8302 15.4991 16.192 18.4386 16.192Z" fill="#0078D4"/>
<path d="M20.0327 20.0449H6.33869C4.87538 20.0449 4.87538 22.6793 6.33869 22.6793H20.0327C21.4947 22.6793 21.4947 20.0449 20.0327 20.0449Z" fill="white"/>
<path d="M20.0327 25.293H6.33869C4.87538 25.293 4.87538 27.9273 6.33869 27.9273H20.0327C21.4947 27.9273 21.4947 25.293 20.0327 25.293Z" fill="white"/>
<path d="M24.8055 20.0459H30.5961C32.0463 20.0459 32.0463 22.6751 30.5961 22.6751H24.8055C23.3656 22.6751 23.3656 20.0459 24.8055 20.0459Z" fill="white"/>
<path d="M24.8055 25.2949H30.5961C32.0463 25.2949 32.0463 27.9241 30.5961 27.9241H24.8055C23.3656 27.9241 23.3656 25.2949 24.8055 25.2949Z" fill="white"/>
<path d="M24.8055 38.3633H30.5961C32.0463 38.3633 32.0463 40.9925 30.5961 40.9925H24.8055C23.3656 40.9925 23.3656 38.3633 24.8055 38.3633Z" fill="white"/>
<path d="M30.675 33.1514H6.26045C4.89626 33.1514 4.89626 35.7883 6.26045 35.7883H30.675C32.0548 35.7883 32.0548 33.1514 30.675 33.1514Z" fill="white"/>
</g>
<path d="M66.848 29.408C67.024 29.408 67.18 29.476 67.316 29.612L68.588 30.992C67.884 31.864 67.016 32.532 65.984 32.996C64.96 33.46 63.728 33.692 62.288 33.692C61 33.692 59.84 33.472 58.808 33.032C57.784 32.592 56.908 31.98 56.18 31.196C55.452 30.412 54.892 29.476 54.5 28.388C54.116 27.3 53.924 26.112 53.924 24.824C53.924 23.52 54.132 22.328 54.548 21.248C54.964 20.16 55.548 19.224 56.3 18.44C57.06 17.656 57.964 17.048 59.012 16.616C60.06 16.176 61.22 15.956 62.492 15.956C63.756 15.956 64.876 16.164 65.852 16.58C66.836 16.996 67.672 17.54 68.36 18.212L67.28 19.712C67.216 19.808 67.132 19.892 67.028 19.964C66.932 20.036 66.796 20.072 66.62 20.072C66.5 20.072 66.376 20.04 66.248 19.976C66.12 19.904 65.98 19.82 65.828 19.724C65.676 19.62 65.5 19.508 65.3 19.388C65.1 19.268 64.868 19.16 64.604 19.064C64.34 18.96 64.032 18.876 63.68 18.812C63.336 18.74 62.936 18.704 62.48 18.704C61.704 18.704 60.992 18.844 60.344 19.124C59.704 19.396 59.152 19.796 58.688 20.324C58.224 20.844 57.864 21.484 57.608 22.244C57.352 22.996 57.224 23.856 57.224 24.824C57.224 25.8 57.36 26.668 57.632 27.428C57.912 28.188 58.288 28.828 58.76 29.348C59.232 29.868 59.788 30.268 60.428 30.548C61.068 30.82 61.756 30.956 62.492 30.956C62.932 30.956 63.328 30.932 63.68 30.884C64.04 30.836 64.368 30.76 64.664 30.656C64.968 30.552 65.252 30.42 65.516 30.26C65.788 30.092 66.056 29.888 66.32 29.648C66.4 29.576 66.484 29.52 66.572 29.48C66.66 29.432 66.752 29.408 66.848 29.408ZM73.3312 15.668V33.5H70.3672V15.668H73.3312ZM81.7323 20.996C82.6443 20.996 83.4723 21.144 84.2163 21.44C84.9683 21.736 85.6083 22.156 86.1363 22.7C86.6723 23.244 87.0843 23.908 87.3723 24.692C87.6603 25.476 87.8043 26.352 87.8043 27.32C87.8043 28.296 87.6603 29.176 87.3723 29.96C87.0843 30.744 86.6723 31.412 86.1363 31.964C85.6083 32.516 84.9683 32.94 84.2163 33.236C83.4723 33.532 82.6443 33.68 81.7323 33.68C80.8123 33.68 79.9763 33.532 79.2243 33.236C78.4723 32.94 77.8283 32.516 77.2923 31.964C76.7643 31.412 76.3523 30.744 76.0563 29.96C75.7683 29.176 75.6243 28.296 75.6243 27.32C75.6243 26.352 75.7683 25.476 76.0563 24.692C76.3523 23.908 76.7643 23.244 77.2923 22.7C77.8283 22.156 78.4723 21.736 79.2243 21.44C79.9763 21.144 80.8123 20.996 81.7323 20.996ZM81.7323 31.4C82.7563 31.4 83.5123 31.056 84.0003 30.368C84.4963 29.68 84.7443 28.672 84.7443 27.344C84.7443 26.016 84.4963 25.004 84.0003 24.308C83.5123 23.612 82.7563 23.264 81.7323 23.264C80.6923 23.264 79.9203 23.616 79.4163 24.32C78.9203 25.016 78.6723 26.024 78.6723 27.344C78.6723 28.664 78.9203 29.672 79.4163 30.368C79.9203 31.056 80.6923 31.4 81.7323 31.4ZM100.674 21.188V33.5H98.8616C98.4696 33.5 98.2216 33.32 98.1176 32.96L97.9136 31.976C97.4096 32.488 96.8536 32.904 96.2456 33.224C95.6376 33.536 94.9216 33.692 94.0976 33.692C93.4256 33.692 92.8296 33.58 92.3096 33.356C91.7976 33.124 91.3656 32.8 91.0136 32.384C90.6616 31.968 90.3936 31.476 90.2096 30.908C90.0336 30.332 89.9456 29.7 89.9456 29.012V21.188H92.9096V29.012C92.9096 29.764 93.0816 30.348 93.4256 30.764C93.7776 31.172 94.3016 31.376 94.9976 31.376C95.5096 31.376 95.9896 31.264 96.4376 31.04C96.8856 30.808 97.3096 30.492 97.7096 30.092V21.188H100.674ZM111.34 24.332C111.004 23.924 110.636 23.636 110.236 23.468C109.844 23.3 109.42 23.216 108.964 23.216C108.516 23.216 108.112 23.3 107.752 23.468C107.392 23.636 107.084 23.892 106.828 24.236C106.572 24.572 106.376 25.004 106.24 25.532C106.104 26.052 106.036 26.668 106.036 27.38C106.036 28.1 106.092 28.712 106.204 29.216C106.324 29.712 106.492 30.12 106.708 30.44C106.924 30.752 107.188 30.98 107.5 31.124C107.812 31.26 108.16 31.328 108.544 31.328C109.16 31.328 109.684 31.2 110.116 30.944C110.548 30.688 110.956 30.324 111.34 29.852V24.332ZM114.304 15.668V33.5H112.492C112.1 33.5 111.852 33.32 111.748 32.96L111.496 31.772C111 32.34 110.428 32.8 109.78 33.152C109.14 33.504 108.392 33.68 107.536 33.68C106.864 33.68 106.248 33.54 105.688 33.26C105.128 32.98 104.644 32.576 104.236 32.048C103.836 31.512 103.524 30.852 103.3 30.068C103.084 29.284 102.976 28.388 102.976 27.38C102.976 26.468 103.1 25.62 103.348 24.836C103.596 24.052 103.952 23.372 104.416 22.796C104.88 22.22 105.436 21.772 106.084 21.452C106.732 21.124 107.46 20.96 108.268 20.96C108.956 20.96 109.544 21.068 110.032 21.284C110.52 21.5 110.956 21.792 111.34 22.16V15.668H114.304Z" fill="#070A0B"/>
<path d="M125.99 26.972L124.814 21.032C124.766 20.76 124.71 20.444 124.646 20.084C124.582 19.724 124.518 19.332 124.454 18.908C124.294 19.332 124.138 19.724 123.986 20.084C123.834 20.444 123.698 20.764 123.578 21.044L120.95 26.972H125.99ZM130.514 33.5H128.102C127.83 33.5 127.618 33.436 127.466 33.308C127.322 33.172 127.218 33 127.154 32.792L126.434 29.168H119.966L118.358 32.792C118.27 32.976 118.126 33.14 117.926 33.284C117.734 33.428 117.51 33.5 117.254 33.5H114.806L123.194 16.148H126.374L130.514 33.5ZM140.972 31.316C140.564 31.764 140.172 32.14 139.796 32.444C139.428 32.748 139.052 32.992 138.668 33.176C138.284 33.36 137.88 33.488 137.456 33.56C137.04 33.64 136.58 33.68 136.076 33.68C135.364 33.68 134.724 33.56 134.156 33.32C133.596 33.072 133.12 32.724 132.728 32.276C132.336 31.828 132.036 31.288 131.828 30.656C131.62 30.024 131.516 29.32 131.516 28.544C131.516 27.88 131.588 27.232 131.732 26.6C131.876 25.968 132.084 25.372 132.356 24.812C132.628 24.252 132.956 23.74 133.34 23.276C133.724 22.812 134.156 22.412 134.636 22.076C135.116 21.74 135.636 21.48 136.196 21.296C136.764 21.104 137.364 21.008 137.996 21.008C138.812 21.008 139.504 21.152 140.072 21.44C140.648 21.728 141.156 22.16 141.596 22.736L140.648 23.864C140.584 23.936 140.504 24.004 140.408 24.068C140.312 24.124 140.208 24.152 140.096 24.152C139.96 24.152 139.836 24.112 139.724 24.032C139.62 23.944 139.492 23.852 139.34 23.756C139.196 23.66 139.012 23.572 138.788 23.492C138.572 23.404 138.288 23.36 137.936 23.36C137.48 23.36 137.044 23.484 136.628 23.732C136.212 23.98 135.844 24.332 135.524 24.788C135.204 25.244 134.948 25.792 134.756 26.432C134.572 27.072 134.48 27.78 134.48 28.556C134.48 29.46 134.68 30.16 135.08 30.656C135.48 31.144 136.024 31.388 136.712 31.388C137.016 31.388 137.284 31.356 137.516 31.292C137.748 31.228 137.952 31.152 138.128 31.064C138.312 30.968 138.472 30.868 138.608 30.764C138.744 30.652 138.872 30.552 138.992 30.464C139.112 30.368 139.224 30.288 139.328 30.224C139.44 30.16 139.56 30.128 139.688 30.128C139.792 30.128 139.888 30.156 139.976 30.212C140.072 30.26 140.156 30.324 140.228 30.404L140.972 31.316ZM151.589 31.316C151.181 31.764 150.789 32.14 150.413 32.444C150.045 32.748 149.669 32.992 149.285 33.176C148.901 33.36 148.497 33.488 148.073 33.56C147.657 33.64 147.197 33.68 146.693 33.68C145.981 33.68 145.341 33.56 144.773 33.32C144.213 33.072 143.737 32.724 143.345 32.276C142.953 31.828 142.653 31.288 142.445 30.656C142.237 30.024 142.133 29.32 142.133 28.544C142.133 27.88 142.205 27.232 142.349 26.6C142.493 25.968 142.701 25.372 142.973 24.812C143.245 24.252 143.573 23.74 143.957 23.276C144.341 22.812 144.773 22.412 145.253 22.076C145.733 21.74 146.253 21.48 146.813 21.296C147.381 21.104 147.981 21.008 148.613 21.008C149.429 21.008 150.121 21.152 150.689 21.44C151.265 21.728 151.773 22.16 152.213 22.736L151.265 23.864C151.201 23.936 151.121 24.004 151.025 24.068C150.929 24.124 150.825 24.152 150.713 24.152C150.577 24.152 150.453 24.112 150.341 24.032C150.237 23.944 150.109 23.852 149.957 23.756C149.813 23.66 149.629 23.572 149.405 23.492C149.189 23.404 148.905 23.36 148.553 23.36C148.097 23.36 147.661 23.484 147.245 23.732C146.829 23.98 146.461 24.332 146.141 24.788C145.821 25.244 145.565 25.792 145.373 26.432C145.189 27.072 145.097 27.78 145.097 28.556C145.097 29.46 145.297 30.16 145.697 30.656C146.097 31.144 146.641 31.388 147.329 31.388C147.633 31.388 147.901 31.356 148.133 31.292C148.365 31.228 148.569 31.152 148.745 31.064C148.929 30.968 149.089 30.868 149.225 30.764C149.361 30.652 149.489 30.552 149.609 30.464C149.729 30.368 149.841 30.288 149.945 30.224C150.057 30.16 150.177 30.128 150.305 30.128C150.409 30.128 150.505 30.156 150.593 30.212C150.689 30.26 150.773 30.324 150.845 30.404L151.589 31.316ZM157.778 31.4C158.274 31.4 158.722 31.26 159.122 30.98C159.522 30.692 159.862 30.312 160.142 29.84C160.422 29.36 160.638 28.804 160.79 28.172C160.942 27.54 161.018 26.876 161.018 26.18C161.018 25.18 160.85 24.448 160.514 23.984C160.178 23.512 159.666 23.276 158.978 23.276C158.482 23.276 158.03 23.416 157.622 23.696C157.222 23.976 156.882 24.356 156.602 24.836C156.322 25.308 156.106 25.86 155.954 26.492C155.802 27.124 155.726 27.792 155.726 28.496C155.726 29.496 155.894 30.232 156.23 30.704C156.566 31.168 157.082 31.4 157.778 31.4ZM157.502 33.68C156.822 33.68 156.194 33.568 155.618 33.344C155.042 33.112 154.542 32.776 154.118 32.336C153.694 31.896 153.362 31.356 153.122 30.716C152.882 30.076 152.762 29.344 152.762 28.52C152.762 27.456 152.934 26.464 153.278 25.544C153.622 24.624 154.086 23.828 154.67 23.156C155.262 22.484 155.95 21.956 156.734 21.572C157.518 21.188 158.354 20.996 159.242 20.996C159.922 20.996 160.55 21.112 161.126 21.344C161.71 21.568 162.21 21.9 162.626 22.34C163.05 22.78 163.382 23.32 163.622 23.96C163.862 24.6 163.982 25.332 163.982 26.156C163.982 27.212 163.81 28.2 163.466 29.12C163.122 30.032 162.654 30.828 162.062 31.508C161.478 32.18 160.794 32.712 160.01 33.104C159.226 33.488 158.39 33.68 157.502 33.68ZM177.001 21.188L175.513 33.5H174.013C173.309 33.5 172.957 33.16 172.957 32.48L173.029 31.064C172.405 31.944 171.721 32.6 170.977 33.032C170.241 33.464 169.477 33.68 168.685 33.68C168.173 33.68 167.713 33.576 167.305 33.368C166.897 33.16 166.561 32.86 166.297 32.468C166.033 32.068 165.845 31.576 165.733 30.992C165.629 30.408 165.625 29.744 165.721 29L166.645 21.188H169.609L168.685 29C168.581 29.808 168.621 30.388 168.805 30.74C168.989 31.084 169.325 31.256 169.813 31.256C170.133 31.256 170.457 31.168 170.785 30.992C171.121 30.816 171.445 30.564 171.757 30.236C172.069 29.908 172.357 29.516 172.621 29.06C172.885 28.596 173.105 28.08 173.281 27.512L174.037 21.188H177.001ZM182.161 23.732C182.785 22.812 183.477 22.128 184.237 21.68C184.997 21.224 185.781 20.996 186.589 20.996C187.101 20.996 187.561 21.1 187.969 21.308C188.377 21.516 188.713 21.82 188.977 22.22C189.241 22.612 189.425 23.1 189.529 23.684C189.641 24.26 189.649 24.92 189.553 25.664L188.629 33.5H185.665L186.589 25.664C186.693 24.864 186.653 24.292 186.469 23.948C186.285 23.596 185.949 23.42 185.461 23.42C185.133 23.42 184.797 23.516 184.453 23.708C184.109 23.892 183.777 24.16 183.457 24.512C183.137 24.856 182.841 25.272 182.569 25.76C182.305 26.24 182.089 26.78 181.921 27.38L181.237 33.5H178.273L179.749 21.176H181.249C181.561 21.176 181.801 21.252 181.969 21.404C182.145 21.556 182.233 21.8 182.233 22.136L182.161 23.732ZM202.638 33.5H199.782L201.03 23.36H195.906L195.234 28.772C195.194 29.1 195.162 29.36 195.138 29.552C195.114 29.744 195.094 29.896 195.078 30.008C195.07 30.112 195.062 30.188 195.054 30.236C195.054 30.276 195.054 30.304 195.054 30.32C195.054 30.624 195.126 30.864 195.27 31.04C195.422 31.216 195.634 31.304 195.906 31.304C196.074 31.304 196.218 31.284 196.338 31.244C196.458 31.196 196.562 31.148 196.65 31.1C196.738 31.052 196.818 31.008 196.89 30.968C196.962 30.92 197.03 30.896 197.094 30.896C197.182 30.896 197.25 30.92 197.298 30.968C197.346 31.008 197.39 31.072 197.43 31.16L198.078 32.6C197.63 32.96 197.138 33.232 196.602 33.416C196.074 33.6 195.538 33.692 194.994 33.692C194.122 33.692 193.43 33.456 192.918 32.984C192.414 32.512 192.146 31.848 192.114 30.992C192.114 30.936 192.114 30.872 192.114 30.8C192.114 30.72 192.118 30.608 192.126 30.464C192.142 30.312 192.162 30.116 192.186 29.876C192.218 29.628 192.258 29.312 192.306 28.928L192.99 23.36H191.886C191.726 23.36 191.598 23.312 191.502 23.216C191.414 23.112 191.382 22.96 191.406 22.76L191.55 21.62L193.374 21.308L194.382 17.924C194.43 17.764 194.51 17.64 194.622 17.552C194.734 17.464 194.874 17.42 195.042 17.42H196.638L196.158 21.332H204.138L202.638 33.5ZM205.158 17.6C205.158 17.856 205.102 18.096 204.99 18.32C204.886 18.544 204.746 18.74 204.57 18.908C204.402 19.076 204.206 19.212 203.982 19.316C203.758 19.412 203.526 19.46 203.286 19.46C203.054 19.46 202.826 19.412 202.602 19.316C202.386 19.212 202.194 19.076 202.026 18.908C201.858 18.74 201.722 18.544 201.618 18.32C201.522 18.096 201.474 17.856 201.474 17.6C201.474 17.344 201.526 17.1 201.63 16.868C201.734 16.636 201.87 16.436 202.038 16.268C202.206 16.092 202.398 15.956 202.614 15.86C202.838 15.756 203.066 15.704 203.298 15.704C203.538 15.704 203.77 15.756 203.994 15.86C204.218 15.956 204.414 16.088 204.582 16.256C204.758 16.424 204.898 16.624 205.002 16.856C205.106 17.088 205.158 17.336 205.158 17.6ZM209.396 23.732C210.02 22.812 210.712 22.128 211.472 21.68C212.232 21.224 213.016 20.996 213.824 20.996C214.336 20.996 214.796 21.1 215.204 21.308C215.612 21.516 215.948 21.82 216.212 22.22C216.476 22.612 216.66 23.1 216.764 23.684C216.876 24.26 216.884 24.92 216.788 25.664L215.864 33.5H212.9L213.824 25.664C213.928 24.864 213.888 24.292 213.704 23.948C213.52 23.596 213.184 23.42 212.696 23.42C212.368 23.42 212.032 23.516 211.688 23.708C211.344 23.892 211.012 24.16 210.692 24.512C210.372 24.856 210.076 25.272 209.804 25.76C209.54 26.24 209.324 26.78 209.156 27.38L208.472 33.5H205.508L206.984 21.176H208.484C208.796 21.176 209.036 21.252 209.204 21.404C209.38 21.556 209.468 21.8 209.468 22.136L209.396 23.732ZM222.416 35.768C222.864 35.768 223.272 35.712 223.64 35.6C224.008 35.488 224.324 35.332 224.588 35.132C224.852 34.932 225.056 34.696 225.2 34.424C225.344 34.152 225.416 33.86 225.416 33.548C225.416 33.436 225.408 33.328 225.392 33.224C225.384 33.112 225.372 33.008 225.356 32.912C224.412 32.752 223.604 32.684 222.932 32.708C222.26 32.732 221.712 32.816 221.288 32.96C220.864 33.104 220.552 33.296 220.352 33.536C220.152 33.776 220.052 34.032 220.052 34.304C220.052 34.784 220.244 35.148 220.628 35.396C221.02 35.644 221.616 35.768 222.416 35.768ZM223.484 27.728C223.844 27.728 224.16 27.644 224.432 27.476C224.704 27.308 224.932 27.088 225.116 26.816C225.308 26.544 225.452 26.24 225.548 25.904C225.644 25.56 225.696 25.212 225.704 24.86C225.704 24.26 225.56 23.8 225.272 23.48C224.992 23.16 224.584 23 224.048 23C223.688 23 223.372 23.08 223.1 23.24C222.828 23.392 222.6 23.6 222.416 23.864C222.232 24.12 222.092 24.416 221.996 24.752C221.908 25.088 221.864 25.436 221.864 25.796C221.864 26.412 222.004 26.888 222.284 27.224C222.564 27.56 222.964 27.728 223.484 27.728ZM230.264 21.632L230.132 22.592C230.076 22.976 229.88 23.232 229.544 23.36L228.284 23.684C228.324 23.844 228.352 24.016 228.368 24.2C228.392 24.376 228.404 24.56 228.404 24.752C228.404 25.12 228.364 25.452 228.284 25.748C228.204 26.036 228.104 26.304 227.984 26.552C227.872 26.8 227.748 27.036 227.612 27.26C227.476 27.476 227.348 27.7 227.228 27.932C227.116 28.156 227.02 28.396 226.94 28.652C226.86 28.9 226.82 29.176 226.82 29.48C226.82 29.808 226.888 30.112 227.024 30.392C227.16 30.664 227.308 30.944 227.468 31.232C227.628 31.52 227.776 31.828 227.912 32.156C228.048 32.484 228.116 32.864 228.116 33.296C228.108 33.904 227.968 34.48 227.696 35.024C227.424 35.576 227.032 36.056 226.52 36.464C226.016 36.88 225.396 37.208 224.66 37.448C223.924 37.688 223.092 37.808 222.164 37.808C221.412 37.808 220.732 37.728 220.124 37.568C219.516 37.416 219 37.2 218.576 36.92C218.152 36.64 217.824 36.308 217.592 35.924C217.36 35.548 217.244 35.132 217.244 34.676C217.244 34.116 217.364 33.628 217.604 33.212C217.844 32.796 218.164 32.448 218.564 32.168C218.964 31.88 219.424 31.652 219.944 31.484C220.464 31.316 221.004 31.196 221.564 31.124C222.124 31.052 222.684 31.024 223.244 31.04C223.804 31.056 224.324 31.104 224.804 31.184C224.732 30.944 224.696 30.684 224.696 30.404C224.696 29.94 224.824 29.428 225.08 28.868C224.776 29.076 224.428 29.236 224.036 29.348C223.652 29.46 223.188 29.516 222.644 29.516C222.18 29.516 221.736 29.44 221.312 29.288C220.896 29.136 220.528 28.904 220.208 28.592C219.888 28.28 219.632 27.892 219.44 27.428C219.256 26.956 219.164 26.408 219.164 25.784C219.164 25.184 219.276 24.6 219.5 24.032C219.724 23.456 220.056 22.944 220.496 22.496C220.936 22.04 221.48 21.676 222.128 21.404C222.776 21.132 223.528 20.996 224.384 20.996C224.84 20.996 225.272 21.048 225.68 21.152C226.096 21.256 226.476 21.416 226.82 21.632H230.264ZM250.321 16.148L248.185 33.5H245.449L246.841 22.196C246.873 21.988 246.909 21.764 246.949 21.524C246.997 21.284 247.049 21.036 247.105 20.78L241.141 30.668C241.005 30.892 240.833 31.06 240.625 31.172C240.425 31.284 240.205 31.34 239.965 31.34H239.533C239.293 31.34 239.081 31.284 238.897 31.172C238.721 31.06 238.593 30.892 238.513 30.668L234.937 20.78C234.929 21.028 234.917 21.268 234.901 21.5C234.893 21.732 234.877 21.948 234.853 22.148L233.485 33.5H230.737L232.873 16.148H235.213C235.349 16.148 235.461 16.156 235.549 16.172C235.645 16.18 235.729 16.204 235.801 16.244C235.873 16.276 235.941 16.328 236.005 16.4C236.069 16.464 236.137 16.548 236.209 16.652L239.797 26.564C239.941 26.988 240.061 27.42 240.157 27.86C240.261 27.636 240.365 27.416 240.469 27.2C240.581 26.984 240.701 26.772 240.829 26.564L246.853 16.652C246.949 16.548 247.033 16.464 247.105 16.4C247.185 16.328 247.265 16.276 247.345 16.244C247.425 16.204 247.513 16.18 247.609 16.172C247.705 16.156 247.821 16.148 247.957 16.148H250.321ZM259.195 23.132C259.083 23.124 258.975 23.12 258.871 23.12C258.775 23.112 258.679 23.108 258.583 23.108C257.919 23.108 257.303 23.26 256.735 23.564C256.167 23.868 255.675 24.28 255.259 24.8C254.851 25.312 254.527 25.912 254.287 26.6C254.055 27.28 253.939 28 253.939 28.76C253.939 29.624 254.075 30.256 254.347 30.656C254.619 31.056 254.991 31.256 255.463 31.256C255.791 31.256 256.111 31.144 256.423 30.92C256.743 30.688 257.043 30.376 257.323 29.984C257.611 29.584 257.871 29.116 258.103 28.58C258.343 28.044 258.551 27.468 258.727 26.852L259.195 23.132ZM258.379 30.932C257.835 31.772 257.219 32.44 256.531 32.936C255.851 33.432 255.107 33.68 254.299 33.68C253.835 33.68 253.399 33.588 252.991 33.404C252.591 33.22 252.239 32.948 251.935 32.588C251.639 32.22 251.403 31.764 251.227 31.22C251.059 30.668 250.975 30.024 250.975 29.288C250.975 28.552 251.067 27.836 251.251 27.14C251.435 26.444 251.695 25.792 252.031 25.184C252.375 24.568 252.787 24.004 253.267 23.492C253.747 22.98 254.283 22.54 254.875 22.172C255.475 21.804 256.119 21.52 256.807 21.32C257.503 21.112 258.235 21.008 259.003 21.008C259.555 21.008 260.107 21.048 260.659 21.128C261.219 21.208 261.763 21.352 262.291 21.56L260.815 33.5H259.243C258.867 33.5 258.611 33.408 258.475 33.224C258.347 33.032 258.283 32.796 258.283 32.516L258.379 30.932ZM271.735 23.504C271.647 23.632 271.563 23.724 271.483 23.78C271.403 23.828 271.299 23.852 271.171 23.852C271.027 23.852 270.883 23.812 270.739 23.732C270.595 23.652 270.427 23.564 270.235 23.468C270.051 23.364 269.835 23.272 269.587 23.192C269.347 23.112 269.059 23.072 268.723 23.072C268.091 23.072 267.607 23.216 267.271 23.504C266.935 23.784 266.767 24.136 266.767 24.56C266.767 24.888 266.883 25.152 267.115 25.352C267.355 25.552 267.655 25.728 268.015 25.88C268.375 26.032 268.759 26.188 269.167 26.348C269.583 26.5 269.971 26.696 270.331 26.936C270.691 27.168 270.987 27.472 271.219 27.848C271.459 28.216 271.579 28.692 271.579 29.276C271.579 29.868 271.459 30.432 271.219 30.968C270.987 31.504 270.651 31.976 270.211 32.384C269.771 32.784 269.239 33.104 268.615 33.344C267.999 33.576 267.303 33.692 266.527 33.692C266.143 33.692 265.767 33.652 265.399 33.572C265.031 33.5 264.687 33.396 264.367 33.26C264.055 33.124 263.767 32.964 263.503 32.78C263.239 32.596 263.015 32.396 262.831 32.18L263.563 31.052C263.651 30.916 263.755 30.812 263.875 30.74C263.995 30.668 264.143 30.632 264.319 30.632C264.487 30.632 264.639 30.684 264.775 30.788C264.911 30.892 265.067 31.008 265.243 31.136C265.427 31.256 265.647 31.368 265.903 31.472C266.167 31.576 266.503 31.628 266.911 31.628C267.239 31.628 267.527 31.584 267.775 31.496C268.031 31.408 268.247 31.288 268.423 31.136C268.599 30.984 268.731 30.808 268.819 30.608C268.907 30.408 268.951 30.196 268.951 29.972C268.951 29.7 268.883 29.476 268.747 29.3C268.611 29.116 268.427 28.96 268.195 28.832C267.971 28.696 267.715 28.58 267.427 28.484C267.139 28.38 266.843 28.272 266.539 28.16C266.243 28.048 265.951 27.92 265.663 27.776C265.383 27.632 265.127 27.452 264.895 27.236C264.671 27.012 264.491 26.744 264.355 26.432C264.219 26.112 264.151 25.724 264.151 25.268C264.151 24.724 264.255 24.196 264.463 23.684C264.671 23.164 264.975 22.708 265.375 22.316C265.775 21.916 266.267 21.596 266.851 21.356C267.443 21.116 268.119 20.996 268.879 20.996C269.663 20.996 270.359 21.132 270.967 21.404C271.575 21.668 272.083 22.008 272.491 22.424L271.735 23.504ZM274.297 30.992C274.297 30.936 274.297 30.872 274.297 30.8C274.297 30.72 274.301 30.608 274.309 30.464C274.325 30.312 274.345 30.116 274.369 29.876C274.401 29.628 274.441 29.312 274.489 28.928L275.173 23.408H274.009C273.865 23.408 273.745 23.356 273.649 23.252C273.561 23.148 273.533 22.992 273.565 22.784L273.697 21.608L275.569 21.284L276.553 17.924C276.609 17.764 276.693 17.64 276.805 17.552C276.917 17.464 277.057 17.42 277.225 17.42H278.809L278.329 21.296H281.305L281.053 23.408H278.065L277.405 28.772C277.365 29.1 277.333 29.36 277.309 29.552C277.285 29.744 277.265 29.896 277.249 30.008C277.241 30.112 277.237 30.188 277.237 30.236C277.237 30.276 277.237 30.304 277.237 30.32C277.237 30.624 277.309 30.864 277.453 31.04C277.605 31.216 277.817 31.304 278.089 31.304C278.257 31.304 278.401 31.284 278.521 31.244C278.641 31.196 278.745 31.148 278.833 31.1C278.921 31.052 279.001 31.008 279.073 30.968C279.145 30.92 279.213 30.896 279.277 30.896C279.365 30.896 279.433 30.92 279.481 30.968C279.529 31.008 279.573 31.072 279.613 31.16L280.249 32.6C279.809 32.96 279.321 33.232 278.785 33.416C278.257 33.6 277.717 33.692 277.165 33.692C276.293 33.692 275.601 33.456 275.089 32.984C274.585 32.512 274.321 31.848 274.297 30.992ZM288.205 23.084C287.805 23.084 287.433 23.168 287.089 23.336C286.745 23.496 286.433 23.724 286.153 24.02C285.881 24.316 285.641 24.672 285.433 25.088C285.233 25.496 285.073 25.944 284.953 26.432C285.945 26.296 286.741 26.148 287.341 25.988C287.949 25.82 288.417 25.644 288.745 25.46C289.073 25.268 289.289 25.064 289.393 24.848C289.505 24.624 289.561 24.392 289.561 24.152C289.561 24.032 289.533 23.908 289.477 23.78C289.429 23.652 289.349 23.54 289.237 23.444C289.133 23.34 288.993 23.256 288.817 23.192C288.649 23.12 288.445 23.084 288.205 23.084ZM284.701 28.484C284.701 30.42 285.521 31.388 287.161 31.388C287.513 31.388 287.825 31.356 288.097 31.292C288.369 31.22 288.605 31.136 288.805 31.04C289.013 30.944 289.197 30.836 289.357 30.716C289.525 30.596 289.677 30.488 289.813 30.392C289.957 30.296 290.097 30.216 290.233 30.152C290.369 30.08 290.517 30.044 290.677 30.044C290.773 30.044 290.865 30.068 290.953 30.116C291.049 30.164 291.133 30.228 291.205 30.308L291.961 31.22C291.537 31.644 291.121 32.012 290.713 32.324C290.305 32.636 289.889 32.892 289.465 33.092C289.041 33.292 288.593 33.44 288.121 33.536C287.649 33.632 287.137 33.68 286.585 33.68C285.865 33.68 285.213 33.56 284.629 33.32C284.045 33.072 283.545 32.728 283.129 32.288C282.713 31.84 282.389 31.304 282.157 30.68C281.933 30.048 281.821 29.344 281.821 28.568C281.821 27.92 281.889 27.284 282.025 26.66C282.169 26.036 282.373 25.444 282.637 24.884C282.901 24.324 283.225 23.808 283.609 23.336C283.993 22.864 284.425 22.456 284.905 22.112C285.393 21.768 285.925 21.5 286.501 21.308C287.085 21.116 287.709 21.02 288.373 21.02C289.013 21.02 289.573 21.112 290.053 21.296C290.541 21.48 290.945 21.72 291.265 22.016C291.593 22.304 291.837 22.628 291.997 22.988C292.157 23.348 292.237 23.7 292.237 24.044C292.237 24.596 292.125 25.1 291.901 25.556C291.685 26.012 291.293 26.42 290.725 26.78C290.165 27.14 289.397 27.452 288.421 27.716C287.445 27.972 286.205 28.176 284.701 28.328V28.484ZM297.38 24.14C297.692 23.532 298.024 23.012 298.376 22.58C298.736 22.14 299.108 21.8 299.492 21.56C299.876 21.312 300.272 21.168 300.68 21.128C301.088 21.08 301.496 21.144 301.904 21.32L301.364 24.152C300.388 23.744 299.532 23.844 298.796 24.452C298.068 25.06 297.484 26.256 297.044 28.04L296.384 33.5H293.48L294.968 21.176H296.48C296.792 21.176 297.032 21.252 297.2 21.404C297.376 21.556 297.464 21.8 297.464 22.136L297.38 24.14ZM310.126 23.504C310.038 23.632 309.954 23.724 309.874 23.78C309.794 23.828 309.69 23.852 309.562 23.852C309.418 23.852 309.274 23.812 309.13 23.732C308.986 23.652 308.818 23.564 308.626 23.468C308.442 23.364 308.226 23.272 307.978 23.192C307.738 23.112 307.45 23.072 307.114 23.072C306.482 23.072 305.998 23.216 305.662 23.504C305.326 23.784 305.158 24.136 305.158 24.56C305.158 24.888 305.274 25.152 305.506 25.352C305.746 25.552 306.046 25.728 306.406 25.88C306.766 26.032 307.15 26.188 307.558 26.348C307.974 26.5 308.362 26.696 308.722 26.936C309.082 27.168 309.378 27.472 309.61 27.848C309.85 28.216 309.97 28.692 309.97 29.276C309.97 29.868 309.85 30.432 309.61 30.968C309.378 31.504 309.042 31.976 308.602 32.384C308.162 32.784 307.63 33.104 307.006 33.344C306.39 33.576 305.694 33.692 304.918 33.692C304.534 33.692 304.158 33.652 303.79 33.572C303.422 33.5 303.078 33.396 302.758 33.26C302.446 33.124 302.158 32.964 301.894 32.78C301.63 32.596 301.405 32.396 301.221 32.18L301.954 31.052C302.042 30.916 302.146 30.812 302.266 30.74C302.386 30.668 302.534 30.632 302.71 30.632C302.878 30.632 303.03 30.684 303.166 30.788C303.302 30.892 303.458 31.008 303.634 31.136C303.818 31.256 304.038 31.368 304.294 31.472C304.558 31.576 304.894 31.628 305.302 31.628C305.63 31.628 305.918 31.584 306.166 31.496C306.422 31.408 306.638 31.288 306.814 31.136C306.99 30.984 307.122 30.808 307.21 30.608C307.298 30.408 307.342 30.196 307.342 29.972C307.342 29.7 307.274 29.476 307.138 29.3C307.002 29.116 306.818 28.96 306.586 28.832C306.362 28.696 306.106 28.58 305.818 28.484C305.53 28.38 305.234 28.272 304.93 28.16C304.634 28.048 304.342 27.92 304.054 27.776C303.774 27.632 303.518 27.452 303.286 27.236C303.062 27.012 302.882 26.744 302.746 26.432C302.61 26.112 302.542 25.724 302.542 25.268C302.542 24.724 302.646 24.196 302.854 23.684C303.062 23.164 303.366 22.708 303.766 22.316C304.166 21.916 304.658 21.596 305.242 21.356C305.834 21.116 306.51 20.996 307.27 20.996C308.054 20.996 308.75 21.132 309.358 21.404C309.966 21.668 310.474 22.008 310.882 22.424L310.126 23.504Z" fill="#0078D4"/>
<defs>
<clipPath id="clip0_275_236">
<rect width="37" height="47" fill="white" transform="translate(0 0.5)"/>
</clipPath>
</defs>
</svg>
