<svg width="31" height="32" viewBox="0 0 31 32" fill="none" xmlns="http://www.w3.org/2000/svg">
<path d="M15.1378 21.3334C14.9123 21.3347 14.6887 21.2899 14.4799 21.2015C14.2711 21.1131 14.0812 20.9828 13.9211 20.8182L7.06647 13.7119C6.90669 13.5463 6.77995 13.3496 6.69348 13.1332C6.60701 12.9168 6.5625 12.6848 6.5625 12.4506C6.5625 12.2163 6.60701 11.9844 6.69348 11.7679C6.77995 11.5515 6.90669 11.3549 7.06647 11.1892C7.22625 11.0236 7.41594 10.8922 7.6247 10.8025C7.83346 10.7129 8.05721 10.6667 8.28317 10.6667C8.50913 10.6667 8.73288 10.7129 8.94164 10.8025C9.1504 10.8922 9.34009 11.0236 9.49987 11.1892L15.1378 17.0696L20.7929 11.4202C20.9505 11.2384 21.1426 11.0924 21.3572 10.9912C21.5718 10.8899 21.8042 10.8357 22.0399 10.8318C22.2756 10.8279 22.5096 10.8745 22.7271 10.9687C22.9447 11.0628 23.1412 11.2025 23.3043 11.3789C23.4674 11.5554 23.5937 11.7648 23.6751 11.9942C23.7566 12.2235 23.7916 12.4678 23.7778 12.7118C23.764 12.9558 23.7019 13.1942 23.5952 13.4122C23.4885 13.6301 23.3396 13.8229 23.1577 13.9784L16.3031 20.8359C15.9897 21.1492 15.5731 21.327 15.1378 21.3334Z" fill="#070A0B"/>
</svg>
