<svg width="60" height="60" viewBox="0 0 60 60" fill="none" xmlns="http://www.w3.org/2000/svg">
<path d="M30 45.5C35.5228 45.5 40 41.0228 40 35.5C40 29.9772 35.5228 25.5 30 25.5C24.4772 25.5 20 29.9772 20 35.5C20 41.0228 24.4772 45.5 30 45.5Z" stroke="#0078D4" stroke-width="3" stroke-miterlimit="10" stroke-linecap="round" stroke-linejoin="round"/>
<path d="M26.1016 35.7503L27.7266 37.3753C28.2016 37.8503 28.9766 37.8503 29.4516 37.4003L33.9016 33.3003" stroke="#0078D4" stroke-width="3" stroke-linecap="round" stroke-linejoin="round"/>
<path d="M20.0001 55H40.0001C50.0501 55 51.8501 50.975 52.3751 46.075L54.2501 26.075C54.9251 19.975 53.1751 15 42.5001 15H17.5001C6.82506 15 5.07505 19.975 5.75005 26.075L7.62505 46.075C8.15005 50.975 9.95006 55 20.0001 55Z" stroke="#0078D4" stroke-width="3" stroke-miterlimit="10" stroke-linecap="round" stroke-linejoin="round"/>
<path d="M20 15V13C20 8.575 20 5 28 5H32C40 5 40 8.575 40 13V15" stroke="#0078D4" stroke-width="3" stroke-miterlimit="10" stroke-linecap="round" stroke-linejoin="round"/>
<path d="M54.1234 27.5C49.7984 30.65 44.9984 32.85 40.0234 34.1" stroke="#0078D4" stroke-width="3" stroke-miterlimit="10" stroke-linecap="round" stroke-linejoin="round"/>
<path d="M6.55078 28.1748C10.7258 31.0248 15.2758 33.0498 20.0008 34.1998" stroke="#0078D4" stroke-width="3" stroke-miterlimit="10" stroke-linecap="round" stroke-linejoin="round"/>
</svg>
